<svg xmlns="http://www.w3.org/2000/svg" xmlns:xlink="http://www.w3.org/1999/xlink" width="375" viewBox="0 0 375 375" height="375" version="1.0"><defs><g id="a"><path d="M 209.421875 0 L 12.28125 0 L 12.28125 -40.1875 L 127.9375 -197.59375 L 19.203125 -197.59375 L 19.203125 -249.609375 L 205.40625 -249.609375 L 205.40625 -205.40625 L 92.875 -52.015625 L 209.421875 -52.015625 Z M 209.421875 0"/></g><g id="b"><path d="M 57.546875 -254.953125 L 117.34375 -257.203125 L 112.203125 -3.859375 L 49.1875 0 L 53.046875 -177.796875 L 33.109375 -164.921875 L 6.4375 -211.546875 Z M 57.546875 -254.953125"/></g></defs><g fill="#FFF"><use x="18.439" y="339.53" xmlns:xlink="http://www.w3.org/1999/xlink" xlink:href="#a" xlink:type="simple" xlink:actuate="onLoad" xlink:show="embed"/></g><path transform="matrix(.75 0 0 .75 18.439 -157.72)" fill="none" d="M 279.232778 663.001723 L 16.373386 663.001723 L 16.373386 609.413178 L 170.576521 399.543372 L 25.602553 399.543372 L 25.602553 330.183993 L 273.873403 330.183993 L 273.873403 389.126705 L 123.836935 593.637135 L 279.232778 593.637135 Z M 279.232778 663.001723" stroke="#C4170C" stroke-width="5.716"/><g fill="#FFF"><use x="222.937" y="306.108" xmlns:xlink="http://www.w3.org/1999/xlink" xlink:href="#b" xlink:type="simple" xlink:actuate="onLoad" xlink:show="embed"/></g><path transform="matrix(.75 0 0 .75 222.937 -14.892)" fill="none" d="M 76.7088 88.085379 L 156.458805 85.04892 L 149.656721 422.871859 L 65.615049 428.002067 L 70.745258 190.960385 L 44.161923 208.121845 L 8.583795 145.960382 Z M 76.7088 88.085379" stroke="#C4170C" stroke-width="5.09"/></svg>